<?xml version="1.0" standalone="no"?>
<!DOCTYPE svg PUBLIC "-//W3C//DTD SVG 20010904//EN"
 "http://www.w3.org/TR/2001/REC-SVG-20010904/DTD/svg10.dtd">
<svg version="1.0" xmlns="http://www.w3.org/2000/svg"
 width="360.000000pt" height="360.000000pt" viewBox="0 0 360.000000 360.000000"
 preserveAspectRatio="xMidYMid meet">
<metadata>
Created by potrace 1.11, written by Peter Selinger 2001-2013
</metadata>
<g transform="translate(0.000000,360.000000) scale(0.100000,-0.100000)"
fill="#000000" stroke="none">
<path d="M0 1800 l0 -1800 1800 0 1800 0 0 1800 0 1800 -1800 0 -1800 0 0
-1800z m1280 815 l0 -395 175 0 175 0 0 -100 0 -100 -300 0 -300 0 0 495 0
495 125 0 125 0 0 -395z m1145 -87 c125 -266 229 -489 232 -495 4 -10 -22 -13
-109 -13 l-115 0 -26 60 -26 60 -204 0 -204 0 -26 -60 -26 -60 -115 0 -115 0
17 38 c9 21 112 243 227 495 199 431 211 456 236 457 25 0 38 -25 254 -482z
m-944 -872 c127 -27 211 -92 249 -192 11 -30 20 -56 20 -58 0 -1 -46 -16 -102
-32 -79 -22 -102 -26 -106 -15 -2 7 -18 28 -34 46 -75 86 -224 85 -312 -2 -49
-48 -69 -107 -74 -214 -7 -166 37 -262 145 -315 52 -26 67 -29 153 -28 98 2
175 22 245 63 l32 19 13 -72 c6 -39 14 -81 17 -93 10 -45 -157 -110 -312 -120
-284 -18 -473 108 -531 354 -22 94 -15 294 14 375 79 222 321 339 583 284z
m1043 -474 c121 -257 226 -479 233 -494 l14 -28 -115 0 -115 0 -27 60 -27 60
-203 0 -203 0 -27 -60 -27 -60 -114 0 c-64 0 -113 4 -111 9 2 5 104 228 227
495 211 457 226 486 250 486 24 0 40 -29 245 -468z"/>
<path d="M2147 2530 c-13 -30 -39 -86 -56 -124 -17 -38 -31 -73 -31 -77 0 -5
52 -9 115 -9 63 0 115 4 115 9 0 5 -26 64 -59 132 l-59 124 -25 -55z"/>
<path d="M2219 1092 l-57 -127 115 -3 c64 -1 117 -1 119 1 5 5 -109 257 -116
257 -3 0 -30 -58 -61 -128z"/>
</g>
</svg>
